<svg width="30" height="30" viewBox="0 0 30 30" fill="none" xmlns="http://www.w3.org/2000/svg">
<path d="M25 0H5C2.23858 0 0 2.23858 0 5V25C0 27.7614 2.23858 30 5 30H11.25V26.4C10.725 26.4 9.6 26.75 8.25 26.4C6.225 25.875 6.525 24.675 5.55 23.25C4.93421 22.35 4.035 22.11 3.975 21.75C3.9 21.625 3.93 21.375 4.65 21.375C5.55 21.375 6.3 22.05 6.45 22.2C6.6 22.35 7.275 23.7 7.95 24.15C8.625 24.6 9.14533 24.675 9.75 24.675C10.65 24.675 10.95 24.3 11.25 24.15C11.55 24 11.46 23.445 11.7 23.025C11.94 22.605 12.2 22.3 12.3 22.2C11.7 22.2 9.16516 21.7476 7.725 20.55C6.56859 19.5883 5.79469 18.1282 5.55 15.975C5.16648 12.6 6.45 11.025 6.975 10.5C6.9 10.325 6.75 9.705 6.75 8.625C6.75 7.545 7.05 6.625 7.2 6.3C7.775 6.35 9.09 6.555 9.75 6.975C10.41 7.395 11.25 7.75 11.475 7.875C12 7.7 13.2289 7.425 14.85 7.425C16.8 7.425 18.3 7.75 18.9 7.875C19.2 7.7 19.815 7.245 20.775 6.825C21.975 6.3 22.525 6.3 22.8 6.3C22.95 6.575 23.2327 6.9 23.325 8.1C23.4173 9.3 23.325 9.675 23.025 10.5C23.7 10.975 24.945 12.735 24.525 15.975C24 20.025 22.35 20.55 21.375 21.15C20.595 21.63 18.65 22.05 17.775 22.2C17.975 22.375 18.405 22.83 18.525 23.25C18.675 23.775 18.825 24.3 18.825 25.5V30H25C27.7614 30 30 27.7614 30 25V5C30 2.23858 27.7614 0 25 0Z" fill="#8C8A8A"/>
</svg>
